# xmcd CD database file
#
# Track frame offsets:
#	150
#	13682
#	26820
#	38185
#	50947
#	61552
#	72617
#	84057
#	96547
#	110300
#	123420
#	139757
#	153437
#	168320
#	185977
#	197342
#	211587
#	224040
#	239685
#	249955
#
# Disc length: 3525 seconds
#
# Revision: 2
# Processed by: cddbd v1.5.1PL0 Copyright (c) Steve Scherf et al.
# Submitted via: jetAudio 5
#
DISCID=230dc314
DTITLE=Waylon Jennings and Willie Nelson - Heroes
DYEAR=1900
DGENRE=
TTITLE0=Good Hearted Woman
TTITLE1=Are You Sure Hank Done It This Way
TTITLE2=Pick up the Tempo
TTITLE3=My Heroes Have Always Been Cowboys
TTITLE4=I Can Get Off On You
TTITLE5=Night Life
TTITLE6=Ladies Love Outlaws
TTITLE7=I'm a Ramblin' Man
TTITLE8=If You Can
TTITLE9=Yesterday's Wine
TTITLE10=Lonesome, On'ry and Mean
TTITLE11=Don't Cuss the Fiddle
TTITLE12=Luckenbach, Texas
TTITLE13=A Couple More Years
TTITLE14=Mamas Don't Let Your Babies Grow Up to be Cowboys
TTITLE15=Bob Willis is Still the King
TTITLE16=Heroes
TTITLE17=Honky Tonk Heroes
TTITLE18=Last Cowboy Song
TTITLE19=Are you Ready for the Country
EXTD=
EXTT0=
EXTT1=
EXTT2=
EXTT3=
EXTT4=
EXTT5=
EXTT6=
EXTT7=
EXTT8=
EXTT9=
EXTT10=
EXTT11=
EXTT12=
EXTT13=
EXTT14=
EXTT15=
EXTT16=
EXTT17=
EXTT18=
EXTT19=
PLAYORDER=
